<svg width="195" height="366" viewBox="0 0 195 366" fill="none" xmlns="http://www.w3.org/2000/svg">
<path d="M204.9 44C212.4 54.4 216.9 64.1 225.4 73.3C233.9 82.5 246.5 91.3 247.8 100.8C249.2 110.3 239.3 120.6 231.2 130.5C223 140.4 216.7 149.9 207.8 153.2C198.9 156.4 187.5 153.2 174.4 156.1C161.3 158.9 146.5 167.7 135.1 166C123.7 164.2 115.5 151.9 109.8 139.2C104.1 126.4 100.9 113.2 102.5 100.9C104.1 88.6 110.5 77.3 115.2 62.9C120 48.5 123.1 31 132.9 22C142.8 13 159.4 12.3 173 17.5C186.7 22.7 197.3 33.6 204.9 44Z" fill="#9C69FF" fill-opacity="0.2"/>
<path d="M58.216 156.606C61.674 161.204 60.154 169.602 58.064 175.91C55.974 182.218 53.352 186.474 49.894 189.856C46.474 193.238 42.218 195.746 35.872 197.874C29.526 199.964 21.09 201.674 15.466 198.292C9.80402 194.91 6.99202 186.474 7.86602 178.874C8.77802 171.312 13.376 164.662 19 160.064C24.662 155.466 31.312 152.92 38.874 152.084C46.398 151.21 54.796 152.008 58.216 156.606Z" fill="#9C69FF" fill-opacity="0.2"/>
<path d="M145.9 232C162.2 244.4 183.9 255.2 183.5 265.6C183.2 276.1 160.8 286.2 144.5 296.3C128.2 306.5 118.1 316.6 105.5 319.2C92.8 321.7 77.6 316.6 69.3 306.5C60.9 296.4 59.4 281.2 60.9 267.5C62.4 253.8 66.9 241.6 75.2 229.2C83.6 216.8 95.8 204.3 107.3 205C118.8 205.7 129.6 219.6 145.9 232Z" fill="#9C69FF" fill-opacity="0.2"/>
</svg>
