<svg width="220" height="328" viewBox="0 0 220 328" fill="none" xmlns="http://www.w3.org/2000/svg">
<path d="M94.375 229.75C103.25 235 109.5 245.563 112.562 257.5C115.625 269.375 115.5 282.688 109.875 293.25C104.25 303.75 93.1875 311.563 81.375 314.688C69.5625 317.875 57 316.438 46.1875 311.812C35.3125 307.25 26.0625 299.563 23.3125 290.313C20.5625 281.063 24.25 270.25 25.625 258.375C26.9375 246.5 25.875 233.563 31.625 227.75C37.375 221.938 49.9375 223.25 62 223.875C74 224.5 85.5 224.438 94.375 229.75Z" fill="#9C69FF" fill-opacity="0.2"/>
<path d="M198.512 178.973C203.805 183.476 208.031 189.164 210.52 196.234C213.008 203.305 213.759 211.718 210.638 218.631C207.518 225.583 200.566 231.033 192.863 233.364C185.121 235.694 176.668 234.944 170.111 231.507C163.515 228.031 158.854 221.869 154.706 215.154C150.559 208.479 146.964 201.211 147.596 194.18C148.228 187.149 153.047 180.355 159.249 176.01C165.45 171.705 172.955 169.809 179.907 170.52C186.859 171.191 193.219 174.47 198.512 178.973Z" fill="#9C69FF" fill-opacity="0.2"/>
<path d="M155.3 42C171.1 47.3 182.9 65.3 178.7 80.4C174.5 95.4 154.3 107.5 143.4 123.8C132.5 140 130.9 160.4 120.4 170.6C109.8 180.7 90.2 180.7 78.6 171.1C66.9 161.6 63.2 142.5 51.9 126.2C40.7 109.9 22 96.4 21.6 84C21.2 71.6 39.2 60.3 55.3 55C71.4 49.8 85.7 50.7 102.7 47.4C119.8 44.1 139.5 36.7 155.3 42Z" fill="#9C69FF" fill-opacity="0.2"/>
</svg>
