<svg width="31" height="27" viewBox="0 0 31 27" fill="none" xmlns="http://www.w3.org/2000/svg">
<path d="M27.3594 2.26758C23.9727 -0.580076 18.7402 -0.152341 15.5 3.14649C12.2598 -0.152341 7.02735 -0.585935 3.64063 2.26758C-0.765618 5.97656 -0.121087 12.0234 3.01954 15.2285L13.2969 25.6992C13.8828 26.2969 14.668 26.6309 15.5 26.6309C16.3379 26.6309 17.1172 26.3027 17.7031 25.7051L27.9805 15.2344C31.1152 12.0293 31.7715 5.98242 27.3594 2.26758ZM25.9766 13.2539L15.6992 23.7246C15.5586 23.8652 15.4414 23.8652 15.3008 23.7246L5.02344 13.2539C2.88477 11.0742 2.45118 6.94922 5.45118 4.42383C7.73048 2.50781 11.2461 2.79492 13.4492 5.03906L15.5 7.13086L17.5508 5.03906C19.7656 2.7832 23.2813 2.50781 25.5488 4.41797C28.543 6.94336 28.0977 11.0918 25.9766 13.2539Z" fill="#9C69FF"/>
</svg>
