<svg width="55" height="64" viewBox="0 0 55 64" fill="none" xmlns="http://www.w3.org/2000/svg">
<path d="M52.912 17.856C52.912 18.384 52.7067 18.8533 52.296 19.264C51.944 19.616 51.5333 19.792 51.064 19.792H39.536C38.7147 19.792 38.0693 19.704 37.6 19.528C37.1307 19.2933 36.6027 18.912 36.016 18.384C35.8987 18.2667 35.5173 17.8853 34.872 17.24C34.2267 16.536 33.2 15.92 31.792 15.392C30.4427 14.864 28.8587 14.6 27.04 14.6C24.5173 14.6 22.4347 14.952 20.792 15.656C19.208 16.3013 18.416 17.4453 18.416 19.088C18.416 20.2613 18.9147 21.2 19.912 21.904C20.9093 22.5493 22.4347 23.136 24.488 23.664C26.6 24.192 30.2373 24.984 35.4 26.04C42.0293 27.3893 46.8987 29.5013 50.008 32.376C53.1173 35.2507 54.672 39.3573 54.672 44.696C54.672 48.568 53.4987 51.9707 51.152 54.904C48.864 57.7787 45.6373 60.008 41.472 61.592C37.3653 63.1173 32.7013 63.88 27.48 63.88C22.4347 63.88 17.8587 63 13.752 61.24C9.64533 59.48 6.41867 57.192 4.072 54.376C1.72533 51.56 0.493333 48.656 0.376 45.664C0.376 45.136 0.552 44.696 0.904 44.344C1.31467 43.9333 1.75467 43.728 2.224 43.728H13.752C15.0427 43.728 16.1573 44.1387 17.096 44.96C17.272 45.136 17.7413 45.664 18.504 46.544C19.2667 47.3653 20.4107 48.128 21.936 48.832C23.52 49.4773 25.368 49.8 27.48 49.8C34.7547 49.8 38.392 48.2453 38.392 45.136C38.392 44.1387 37.864 43.3173 36.808 42.672C35.8107 41.968 34.3733 41.3813 32.496 40.912C30.6187 40.4427 27.6267 39.768 23.52 38.888L19.56 38.096C13.576 36.8053 9.176 34.664 6.36 31.672C3.544 28.6213 2.136 24.5733 2.136 19.528C2.136 16.1253 3.16267 12.9867 5.216 10.112C7.26933 7.17867 10.1733 4.86133 13.928 3.16C17.7413 1.4 22.112 0.519997 27.04 0.519997C31.792 0.519997 36.1333 1.42933 40.064 3.248C43.9947 5.008 47.0747 7.23733 49.304 9.936C51.592 12.6347 52.7947 15.2747 52.912 17.856Z" fill="#9C69FF"/>
</svg>
